# xmcd
#
# Track frame offsets: 
#        150
#        8999
#        19215
#        33173
#        45489
#        56619
#        77970
#        91289
#        101963
#        115429
#        126410
#        137391
#        149711
#        160692
#        173487
#        185807
#        198602
#        208343
#        219292
#        231175
#        242208
#        253241
#        264699
#        277515
#        291944
#
# Disc length: 4039 seconds
#
# Revision: 0
# Processed by: cddbd v1.5.2PL0 Copyright (c) Steve Scherf et al.
# Submitted via: ExactAudioCopyFreeDBPlugin 1.0
#
DISCID=7b0fc519
DTITLE=Alamo City Soul Club - Smile Now...Cry Later
DYEAR=2015
DGENRE=Soul
TTITLE0=Sunny and The Sunliners - Smile Now, Cry Later
TTITLE1=Rick and Mann - As Time Goes By
TTITLE2=The Cheaters - Please Come Home
TTITLE3=Joe Bravo - Think It Over
TTITLE4=Royal Jesters - Private Number
TTITLE5=Freddy Fender AND Ricky Alvarez - Bye Bye, Little Angel AND Pu
TTITLE5=t Me In Jail
TTITLE6=The Romancers - I Did The Wrong Thing
TTITLE7=Conjunto Musical De Tamaulipas - No Se Como Piensas Tu
TTITLE8=Joe Jama - Sleep Late, My Lady Friend
TTITLE9=Spider and The Playboys - My Heart Remembers
TTITLE10=Henry and The Kasuals - Funny Funny
TTITLE11=Little Henry and The Laveers - What To Do
TTITLE12=Dimas III - I Won't Love You Again
TTITLE13=The Eptones - No One Else But You
TTITLE14=Sunday - Where Did He Come From
TTITLE15=The Chimes - The Beginning Of My Life
TTITLE16=Family Connection - Lost Her Love
TTITLE17=Sunny and The Sunglows - Oh Heart
TTITLE18=Doug Sahm - Two Hearts In Love
TTITLE19=Randy Garibay and The Westside Sound - Brown Eyed Girl
TTITLE20=Freddie Fender - A Man Can Cry
TTITLE21=The Downbeats - Darling Of Mine
TTITLE22=The Fuzz - I Love You For All Seasons
TTITLE23=Royal Chessmen - Beggin' You
TTITLE24=Sunny and The Sunliners - Should I Take You Home
EXTD=
EXTT0=
EXTT1=
EXTT2=
EXTT3=
EXTT4=
EXTT5=
EXTT6=
EXTT7=
EXTT8=
EXTT9=
EXTT10=
EXTT11=
EXTT12=
EXTT13=
EXTT14=
EXTT15=
EXTT16=
EXTT17=
EXTT18=
EXTT19=
EXTT20=
EXTT21=
EXTT22=
EXTT23=
EXTT24=
PLAYORDER=
